<svg width="100" height="100" viewBox="0 0 100 100" fill="none" xmlns="http://www.w3.org/2000/svg">
<circle cx="50" cy="50" r="50" fill="#D9D9D9"/>
<path d="M20 68.6667C20 71.4271 22.2396 73.6667 25 73.6667H75C77.7604 73.6667 80 71.4271 80 68.6667V50.3333H20V68.6667ZM40 61.5833C40 60.8958 40.5625 60.3333 41.25 60.3333H55.4167C56.1042 60.3333 56.6667 60.8958 56.6667 61.5833V65.75C56.6667 66.4375 56.1042 67 55.4167 67H41.25C40.5625 67 40 66.4375 40 65.75V61.5833ZM26.6667 61.5833C26.6667 60.8958 27.2292 60.3333 27.9167 60.3333H35.4167C36.1042 60.3333 36.6667 60.8958 36.6667 61.5833V65.75C36.6667 66.4375 36.1042 67 35.4167 67H27.9167C27.2292 67 26.6667 66.4375 26.6667 65.75V61.5833ZM80 32V37H20V32C20 29.2396 22.2396 27 25 27H75C77.7604 27 80 29.2396 80 32Z" fill="white"/>
</svg>
