<svg width="100" height="100" viewBox="0 0 100 100" fill="none" xmlns="http://www.w3.org/2000/svg">
<circle cx="50" cy="50" r="50" fill="#079BDB"/>
<path d="M50 53.75C59.3164 53.75 66.875 46.1914 66.875 36.875C66.875 27.5586 59.3164 20 50 20C40.6836 20 33.125 27.5586 33.125 36.875C33.125 46.1914 40.6836 53.75 50 53.75ZM65 57.5H58.543C55.9414 58.6953 53.0469 59.375 50 59.375C46.9531 59.375 44.0703 58.6953 41.457 57.5H35C26.7148 57.5 20 64.2148 20 72.5V74.375C20 77.4805 22.5195 80 25.625 80H74.375C77.4805 80 80 77.4805 80 74.375V72.5C80 64.2148 73.2852 57.5 65 57.5Z" fill="white"/>
</svg>
